<svg width="19" height="14" viewBox="0 0 19 14" fill="none" xmlns="http://www.w3.org/2000/svg">
<path id="Vector" d="M8.45218 12.9032L0.420489 2.99489C0.28725 2.83215 0.181496 2.63854 0.109327 2.42521C0.0371569 2.21189 0 1.98307 0 1.75198C0 1.52088 0.0371569 1.29207 0.109327 1.07874C0.181496 0.865415 0.28725 0.671798 0.420489 0.509058C0.686832 0.183009 1.04712 0 1.42267 0C1.79822 0 2.15852 0.183009 2.42486 0.509058L6.42427 5.38498C8.02964 7.34218 11.0264 7.33481 12.6221 5.36972L16.5692 0.509058C16.8355 0.183009 17.1958 0 17.5714 0C17.9469 0 18.3072 0.183009 18.5735 0.509058C18.7079 0.671188 18.8147 0.864532 18.8879 1.07789C18.9611 1.29124 18.9992 1.52036 19 1.75198C18.9992 1.98359 18.9611 2.21271 18.8879 2.42607C18.8147 2.63942 18.7079 2.83276 18.5735 2.99489L10.5418 12.9032C10.4087 13.0809 10.2472 13.2227 10.0673 13.3197C9.88752 13.4167 9.69333 13.4668 9.49701 13.4668C9.3007 13.4668 9.10651 13.4167 8.92668 13.3197C8.74686 13.2227 8.5853 13.0809 8.45218 12.9032Z" fill="#101010"/>
</svg>
