<svg width="42" height="42" viewBox="0 0 42 42" fill="none" xmlns="http://www.w3.org/2000/svg">
<g id="Group 1116599352">
<path id="Vector" d="M22.2946 20.9994L28.0786 15.224C28.2515 15.0511 28.3486 14.8166 28.3486 14.5721C28.3486 14.3276 28.2515 14.0931 28.0786 13.9202C27.9057 13.7473 27.6712 13.6501 27.4267 13.6501C27.1823 13.6501 26.9478 13.7473 26.7749 13.9202L21.0001 19.7047L15.2254 13.9202C15.0525 13.7473 14.818 13.6501 14.5736 13.6501C14.3291 13.6501 14.0946 13.7473 13.9217 13.9202C13.7488 14.0931 13.6517 14.3276 13.6517 14.5721C13.6517 14.8166 13.7488 15.0511 13.9217 15.224L19.7056 20.9994L13.9217 26.7747C13.8357 26.8601 13.7674 26.9616 13.7208 27.0735C13.6741 27.1854 13.6501 27.3054 13.6501 27.4266C13.6501 27.5479 13.6741 27.6679 13.7208 27.7798C13.7674 27.8916 13.8357 27.9932 13.9217 28.0785C14.0071 28.1646 14.1086 28.2329 14.2205 28.2795C14.3324 28.3261 14.4524 28.3501 14.5736 28.3501C14.6948 28.3501 14.8148 28.3261 14.9266 28.2795C15.0385 28.2329 15.14 28.1646 15.2254 28.0785L21.0001 22.294L26.7749 28.0785C26.8602 28.1646 26.9618 28.2329 27.0737 28.2795C27.1855 28.3261 27.3055 28.3501 27.4267 28.3501C27.5479 28.3501 27.6679 28.3261 27.7798 28.2795C27.8917 28.2329 27.9932 28.1646 28.0786 28.0785C28.1646 27.9932 28.2329 27.8916 28.2795 27.7798C28.3262 27.6679 28.3501 27.5479 28.3501 27.4266C28.3501 27.3054 28.3262 27.1854 28.2795 27.0735C28.2329 26.9616 28.1646 26.8601 28.0786 26.7747L22.2946 20.9994Z" fill="black"/>
<circle id="Ellipse 1542" cx="21" cy="21" r="20.5" stroke="black"/>
</g>
</svg>
