<svg width="28" height="28" viewBox="0 0 28 28" fill="none" xmlns="http://www.w3.org/2000/svg">
<g id="Dashboard">
<g id="Group 1116599396">
<path id="Vector" d="M10.4437 3.99219H5.79852C4.80091 3.99219 3.99219 4.80091 3.99219 5.79852V10.4437C3.99219 11.4413 4.80091 12.25 5.79852 12.25H10.4437C11.4413 12.25 12.25 11.4413 12.25 10.4437V5.79852C12.25 4.80091 11.4413 3.99219 10.4437 3.99219Z" stroke="white" stroke-width="1.21739" stroke-linecap="round" stroke-linejoin="round"/>
<path id="Vector_2" d="M22.2015 3.99219H17.5563C16.5587 3.99219 15.75 4.80091 15.75 5.79852V10.4437C15.75 11.4413 16.5587 12.25 17.5563 12.25H22.2015C23.1991 12.25 24.0078 11.4413 24.0078 10.4437V5.79852C24.0078 4.80091 23.1991 3.99219 22.2015 3.99219Z" stroke="white" stroke-width="1.21739" stroke-linecap="round" stroke-linejoin="round"/>
<path id="Vector_3" d="M10.4437 15.75H5.79852C4.80091 15.75 3.99219 16.5587 3.99219 17.5563V22.2015C3.99219 23.1991 4.80091 24.0078 5.79852 24.0078H10.4437C11.4413 24.0078 12.25 23.1991 12.25 22.2015V17.5563C12.25 16.5587 11.4413 15.75 10.4437 15.75Z" stroke="white" stroke-width="1.21739" stroke-linecap="round" stroke-linejoin="round"/>
<path id="Vector_4" d="M22.2015 15.75H17.5563C16.5587 15.75 15.75 16.5587 15.75 17.5563V22.2015C15.75 23.1991 16.5587 24.0078 17.5563 24.0078H22.2015C23.1991 24.0078 24.0078 23.1991 24.0078 22.2015V17.5563C24.0078 16.5587 23.1991 15.75 22.2015 15.75Z" stroke="white" stroke-width="1.21739" stroke-linecap="round" stroke-linejoin="round"/>
</g>
</g>
</svg>
