<svg width="45" height="45" viewBox="0 0 45 45" fill="none" xmlns="http://www.w3.org/2000/svg">
<g id="Group 1116599377">
<circle id="Ellipse 1555" cx="22.5" cy="22.5" r="22" fill="white" stroke="#374957"/>
<g id="edit_square">
<mask id="mask0_4575_3751" style="mask-type:alpha" maskUnits="userSpaceOnUse" x="11" y="11" width="24" height="24">
<rect id="Bounding box" x="11.5" y="11.5" width="23" height="23" fill="#D9D9D9" stroke="#374957"/>
</mask>
<g mask="url(#mask0_4575_3751)">
<path id="edit_square_2" d="M33.4162 16.7927L33.4162 16.7927L25.1214 25.1101C24.5602 25.6728 23.7982 25.9891 23.0035 25.9891C21.3516 25.9891 20.0125 24.6488 20.0125 22.9969C20.0125 22.2031 20.3278 21.4414 20.889 20.8802L29.1838 12.5854C29.3827 12.3865 29.6063 12.2375 29.8546 12.1382C30.1033 12.0387 30.3517 11.9891 30.6 11.9891C30.8651 11.9891 31.1176 12.0388 31.3577 12.1381C31.5977 12.2374 31.8172 12.3864 32.0161 12.5853C32.0161 12.5854 32.0161 12.5854 32.0162 12.5854L33.4158 14.01C33.4158 14.0101 33.4159 14.0101 33.4159 14.0102C33.5982 14.2091 33.7391 14.4286 33.8384 14.6688C33.9379 14.9091 33.9875 15.1533 33.9875 15.4016C33.9875 15.65 33.942 15.8943 33.8508 16.1346C33.7598 16.3745 33.615 16.5939 33.4162 16.7927ZM28.5088 17.4927L28.5087 17.4926C28.1013 17.0993 27.4539 17.1049 27.0536 17.5053L22.2863 22.2726C22.095 22.4639 21.9875 22.7234 21.9875 22.9939V23.0116C21.9875 23.5653 22.4363 24.0141 22.99 24.0141C23.2558 24.0141 23.5108 23.9084 23.6988 23.7205L28.5088 18.9104C28.9003 18.5189 28.9003 17.8842 28.5088 17.4927ZM16 31.9891C15.4533 31.9891 14.9857 31.7946 14.5963 31.4052C14.207 31.0159 14.0125 30.5482 14.0125 30.0016V16.0016C14.0125 15.4549 14.207 14.9872 14.5963 14.5979C14.9857 14.2086 15.4533 14.0141 16 14.0141H22.5108C23.3906 14.0141 23.8311 15.0777 23.2091 15.6998C23.0239 15.885 22.7727 15.9891 22.5108 15.9891H20.8967C18.1854 15.9891 15.9875 18.187 15.9875 20.8983V24.0016C15.9875 27.3222 18.6794 30.0141 22 30.0141H25.0856C27.8067 30.0141 30.0125 27.8082 30.0125 25.0872V23.4658C30.0125 23.2039 30.1165 22.9527 30.3017 22.7675C30.9238 22.1454 31.9875 22.586 31.9875 23.4658V30.0016C31.9875 30.5482 31.793 31.0159 31.4037 31.4052C31.0143 31.7946 30.5467 31.9891 30 31.9891H16Z" fill="#374957" stroke="#374957" stroke-width="0.025"/>
</g>
</g>
</g>
</svg>
