<svg width="31" height="31" viewBox="0 0 31 31" fill="none" xmlns="http://www.w3.org/2000/svg">
<g id="No" clip-path="url(#clip0_4575_2117)">
<path id="Vector" d="M15.5 31C6.975 31 0 24.025 0 15.5C0 6.975 6.975 0 15.5 0C24.025 0 31 6.975 31 15.5C31 24.025 24.025 31 15.5 31ZM15.5 2.58333C8.39583 2.58333 2.58333 8.39583 2.58333 15.5C2.58333 22.6042 8.39583 28.4167 15.5 28.4167C22.6042 28.4167 28.4167 22.6042 28.4167 15.5C28.4167 8.39583 22.6042 2.58333 15.5 2.58333Z" fill="white"/>
<path id="Vector_2" d="M10.3334 21.9584C9.94591 21.9584 9.68758 21.8292 9.42925 21.5709C8.91258 21.0542 8.91258 20.2792 9.42925 19.7626L19.7626 9.42925C20.2792 8.91258 21.0542 8.91258 21.5709 9.42925C22.0876 9.94591 22.0876 10.7209 21.5709 11.2376L11.2376 21.5709C10.9792 21.8292 10.7209 21.9584 10.3334 21.9584Z" fill="white"/>
<path id="Vector_3" d="M20.6667 21.9584C20.2792 21.9584 20.0209 21.8292 19.7626 21.5709L9.42925 11.2376C8.91258 10.7209 8.91258 9.94591 9.42925 9.42925C9.94591 8.91258 10.7209 8.91258 11.2376 9.42925L21.5709 19.7626C22.0876 20.2792 22.0876 21.0542 21.5709 21.5709C21.3126 21.8292 21.0542 21.9584 20.6667 21.9584Z" fill="white"/>
</g>
<defs>
<clipPath id="clip0_4575_2117">
<rect width="31" height="31" fill="white"/>
</clipPath>
</defs>
</svg>
