<svg width="216" height="223" viewBox="0 0 216 223" fill="none" xmlns="http://www.w3.org/2000/svg">
<g id="Pie Sections">
<g id="Section 1">
<path id="Section" d="M94.4349 5.905C94.4349 2.64457 91.789 -0.0177625 88.535 0.185917C73.2519 1.14252 58.3987 5.80434 45.2739 13.8067C32.1492 21.809 21.2024 32.8778 13.3525 46.0256C11.6811 48.8251 12.836 52.3964 15.7344 53.8897L47.2127 70.1074C50.111 71.6006 53.642 70.435 55.4851 67.7455C59.2455 62.2579 64.1366 57.6077 69.8544 54.1215C75.5722 50.6353 81.9461 48.4171 88.5466 47.5875C91.7816 47.1809 94.4349 44.5758 94.4349 41.3154V5.905Z" fill="#FFD600"/>
</g>
<g id="Secton 2">
<path id="Section_2" d="M206.896 117.807C210.971 117.807 214.302 114.499 214.014 110.433C213.222 99.2724 210.637 88.2952 206.343 77.9282C201.106 65.2852 193.43 53.7974 183.753 44.1208C174.077 34.4443 162.589 26.7684 149.946 21.5315C139.579 17.2373 128.602 14.652 117.441 13.8603C113.376 13.5719 110.067 16.903 110.067 20.9785L110.068 46.8671C110.068 50.9426 113.382 54.2023 117.43 54.6744C123.249 55.353 128.957 56.834 134.391 59.0847C142.102 62.2789 149.109 66.9607 155.011 72.8629C160.914 78.765 165.595 85.7718 168.79 93.4833C171.04 98.917 172.521 104.626 173.2 110.444C173.672 114.492 176.932 117.807 181.007 117.807H206.896Z" fill="#FFD600"/>
</g>
<g id="Section 3">
<path id="Section_3" d="M36.0772 182.53C33.6232 184.677 33.3624 188.42 35.6446 190.748C46.4685 201.792 59.6338 210.307 74.1988 215.647C90.6146 221.665 108.281 223.456 125.57 220.855C142.86 218.254 159.217 211.344 173.135 200.763C187.054 190.181 198.086 176.267 205.216 160.303C212.346 144.339 215.345 126.837 213.936 109.41C212.527 91.9827 206.756 75.1901 197.155 60.5785C187.553 45.9669 174.429 34.0061 158.991 25.7976C145.294 18.5145 130.167 14.3931 114.718 13.7029C111.461 13.5574 108.848 16.2495 108.887 19.5097L109.233 48.348C109.273 51.6082 111.953 54.1908 115.202 54.4542C123.824 55.153 132.234 57.6064 139.908 61.6868C149.324 66.6935 157.329 73.9888 163.185 82.901C169.042 91.8132 172.562 102.056 173.421 112.685C174.28 123.315 172.451 133.99 168.102 143.727C163.754 153.464 157.024 161.951 148.535 168.405C140.046 174.859 130.069 179.073 119.523 180.66C108.978 182.246 98.2024 181.154 88.1898 177.483C80.0296 174.492 72.5897 169.866 66.3153 163.912C63.9503 161.667 60.2384 161.395 57.7844 163.542L36.0772 182.53Z" fill="white"/>
</g>
<g id="Section 4">
<path id="Section_4" d="M22.1253 75.6829C19.1794 74.2858 15.6419 75.536 14.4138 78.5563C7.85475 94.6874 5.43085 112.237 7.40889 129.601C9.38693 146.965 15.696 163.521 25.7151 177.763C27.591 180.43 31.319 180.852 33.8752 178.829L56.4864 160.926C59.0426 158.902 59.4483 155.202 57.6702 152.47C52.3068 144.226 48.9143 134.826 47.7951 125.001C46.6758 115.176 47.8672 105.253 51.2391 96.0148C52.357 92.952 51.1296 89.4382 48.1836 88.0411L22.1253 75.6829Z" fill="#FF7D1A"/>
</g>
</g>
</svg>
