<svg width="44" height="44" viewBox="0 0 44 44" fill="none" xmlns="http://www.w3.org/2000/svg">
<g id="Group 1116599291">
<g id="arrow_downward">
<mask id="mask0_4575_1409" style="mask-type:alpha" maskUnits="userSpaceOnUse" x="8" y="8" width="28" height="28">
<rect id="Bounding box" x="-0.503579" y="-0.496395" width="25" height="25" transform="matrix(0.0071848 0.999974 0.999974 -0.0071848 9.8807 10.1193)" fill="#D9D9D9" stroke="#FFF8F8"/>
</mask>
<g mask="url(#mask0_4575_1409)">
<path id="arrow_downward_2" d="M13.9509 21.0868L13.9508 21.0743L13.9633 21.0742L26.1078 20.987L20.4892 15.4485L20.4802 15.4397L20.4892 15.4308L21.9041 14.0206L21.9128 14.0118L21.9217 14.0205L29.9789 21.9628L29.9878 21.9716L29.9791 21.9805L22.0367 30.0378L22.028 30.0466L22.0191 30.038L20.5841 28.6483L20.5751 28.6395L20.5839 28.6305L26.1223 23.0119L13.9778 23.0992L13.9653 23.0993L13.9652 23.0868L13.9509 21.0868Z" fill="white" stroke="#FFF8F8" stroke-width="0.025"/>
</g>
</g>
<circle id="Ellipse 1389" cx="21" cy="21" r="21.5" transform="matrix(-1 0 0 1 43 1)" stroke="#FFF8F8"/>
</g>
</svg>
