<svg width="26" height="26" viewBox="0 0 26 26" fill="none" xmlns="http://www.w3.org/2000/svg">
<g id="mingcute:upload-line" clip-path="url(#clip0_4575_3970)">
<g id="Group">
<path id="Vector" d="M7.58333 9.74978C8.18164 9.74978 8.66667 10.2348 8.66667 10.8331C8.66667 11.4314 8.18164 11.9164 7.58333 11.9164H7.04167C6.1442 11.9164 5.41667 12.644 5.41667 13.5414V16.7914C5.41667 19.4838 7.59928 21.6664 10.2917 21.6664H15.7083C18.4007 21.6664 20.5833 19.4838 20.5833 16.7914V13.5414C20.5833 12.644 19.8558 11.9164 18.9583 11.9164H18.4167C17.8184 11.9164 17.3333 11.4314 17.3333 10.8331C17.3333 10.2348 17.8184 9.74978 18.4167 9.74978H20.5833C21.158 9.74978 21.7091 9.97806 22.1154 10.3844C22.5217 10.7907 22.75 11.3418 22.75 11.9164V21.6664C22.75 22.2411 22.5217 22.7922 22.1154 23.1985C21.7091 23.6048 21.158 23.8331 20.5833 23.8331H5.41667C4.84203 23.8331 4.29093 23.6048 3.8846 23.1985C3.47827 22.7922 3.25 22.2411 3.25 21.6664V11.9164C3.25 11.3418 3.47827 10.7907 3.8846 10.3844C4.29093 9.97806 4.84203 9.74978 5.41667 9.74978H7.58333ZM13.9577 2.67453L17.5966 6.31237C17.7999 6.51564 17.9141 6.79135 17.9141 7.07882C17.9141 7.3663 17.7999 7.642 17.5966 7.84528C17.3933 8.04856 17.1176 8.16276 16.8301 8.16276C16.5426 8.16276 16.2669 8.04856 16.0637 7.84528C15.333 7.11426 14.0833 7.63171 14.0833 8.66525V16.2498C14.0833 16.5371 13.9692 16.8126 13.766 17.0158C13.5629 17.219 13.2873 17.3331 13 17.3331C12.7127 17.3331 12.4371 17.219 12.234 17.0158C12.0308 16.8126 11.9167 16.5371 11.9167 16.2498V8.66524C11.9167 7.63171 10.667 7.11426 9.93633 7.84528C9.83568 7.94593 9.71619 8.02578 9.58468 8.08025C9.45317 8.13472 9.31222 8.16276 9.16988 8.16276C9.02753 8.16276 8.88658 8.13472 8.75507 8.08025C8.62356 8.02578 8.50407 7.94593 8.40342 7.84528C8.30276 7.74463 8.22292 7.62514 8.16845 7.49363C8.11398 7.36212 8.08594 7.22117 8.08594 7.07882C8.08594 6.93648 8.11398 6.79553 8.16845 6.66402C8.22292 6.53251 8.30276 6.41302 8.40342 6.31237L12.0434 2.67453C12.2973 2.42083 12.6416 2.27832 13.0005 2.27832C13.3595 2.27832 13.7037 2.42083 13.9577 2.67453Z" fill="#0768FD"/>
</g>
</g>
<defs>
<clipPath id="clip0_4575_3970">
<rect width="26" height="26" fill="white"/>
</clipPath>
</defs>
</svg>
