<svg width="15" height="8" viewBox="0 0 15 8" fill="none" xmlns="http://www.w3.org/2000/svg">
<path id="Vector" d="M6.67278 7.66521L0.331965 1.77913C0.226776 1.68245 0.143286 1.56743 0.0863104 1.44071C0.0293344 1.31398 0 1.17805 0 1.04077C0 0.903483 0.0293344 0.767556 0.0863104 0.64083C0.143286 0.514103 0.226776 0.399084 0.331965 0.302408C0.542236 0.108717 0.826676 0 1.12316 0C1.41965 0 1.70409 0.108717 1.91436 0.302408L4.80804 2.95701C6.34333 4.36544 8.70263 4.35953 10.2308 2.94342L13.0809 0.302408C13.2912 0.108717 13.5756 0 13.8721 0C14.1686 0 14.453 0.108717 14.6633 0.302408C14.7694 0.398722 14.8537 0.513578 14.9115 0.640322C14.9693 0.767065 14.9994 0.903176 15 1.04077C14.9994 1.17836 14.9693 1.31447 14.9115 1.44121C14.8537 1.56796 14.7694 1.68281 14.6633 1.77913L8.32251 7.66521C8.21742 7.77077 8.08987 7.85501 7.9479 7.91263C7.80594 7.97025 7.65263 8 7.49764 8C7.34266 8 7.18935 7.97025 7.04738 7.91263C6.90542 7.85501 6.77787 7.77077 6.67278 7.66521Z" fill="#374957"/>
</svg>
