<svg width="11" height="16" viewBox="0 0 11 16" fill="none" xmlns="http://www.w3.org/2000/svg">
<path id="Vector" d="M9.63988 7.11696L2.95286 0.441757C2.84303 0.331021 2.71236 0.243128 2.56839 0.183147C2.42442 0.123167 2.26999 0.0922852 2.11403 0.0922852C1.95806 0.0922852 1.80364 0.123167 1.65967 0.183147C1.5157 0.243128 1.38503 0.331021 1.2752 0.441757C1.05515 0.663116 0.931641 0.962557 0.931641 1.27468C0.931641 1.5868 1.05515 1.88624 1.2752 2.1076L4.64227 5.50869C6.01456 6.89484 6.00895 9.1293 4.62971 10.5085L1.2752 13.863C1.05515 14.0844 0.931641 14.3838 0.931641 14.696C0.931641 15.0081 1.05515 15.3075 1.2752 15.5289C1.38462 15.6405 1.5151 15.7293 1.65909 15.7902C1.80308 15.851 1.95771 15.8827 2.11403 15.8833C2.27034 15.8827 2.42497 15.851 2.56896 15.7902C2.71295 15.7293 2.84344 15.6405 2.95286 15.5289L9.63988 8.85369C9.7598 8.74306 9.85551 8.60878 9.92097 8.45933C9.98643 8.30988 10.0202 8.14849 10.0202 7.98532C10.0202 7.82216 9.98643 7.66077 9.92097 7.51132C9.85551 7.36187 9.7598 7.22759 9.63988 7.11696Z" fill="#374957"/>
</svg>
