<svg width="31" height="31" viewBox="0 0 31 31" fill="none" xmlns="http://www.w3.org/2000/svg">
<g id="Yes" clip-path="url(#clip0_4575_2113)">
<path id="Vector" d="M15.5 31C6.975 31 0 24.025 0 15.5C0 6.975 6.975 0 15.5 0C24.025 0 31 6.975 31 15.5C31 24.025 24.025 31 15.5 31ZM15.5 2.58333C8.39583 2.58333 2.58333 8.39583 2.58333 15.5C2.58333 22.6042 8.39583 28.4167 15.5 28.4167C22.6042 28.4167 28.4167 22.6042 28.4167 15.5C28.4167 8.39583 22.6042 2.58333 15.5 2.58333Z" fill="#FF0000"/>
<path id="Vector_2" d="M14.2084 20.6666C13.8209 20.6666 13.5626 20.5374 13.3042 20.2791L9.42925 16.4041C8.91258 15.8874 8.91258 15.1124 9.42925 14.5958C9.94591 14.0791 10.7209 14.0791 11.2376 14.5958L15.1126 18.4708C15.6292 18.9874 15.6292 19.7624 15.1126 20.2791C14.8542 20.5374 14.5959 20.6666 14.2084 20.6666Z" fill="#FF0000"/>
<path id="Vector_3" d="M14.2084 20.6666C13.8209 20.6666 13.5626 20.5374 13.3042 20.2791C12.7876 19.7624 12.7876 18.9874 13.3042 18.4708L21.0542 10.7208C21.5709 10.2041 22.3459 10.2041 22.8626 10.7208C23.3792 11.2374 23.3792 12.0124 22.8626 12.5291L15.1126 20.2791C14.8542 20.5374 14.5959 20.6666 14.2084 20.6666Z" fill="#FF0000"/>
</g>
<defs>
<clipPath id="clip0_4575_2113">
<rect width="31" height="31" fill="white"/>
</clipPath>
</defs>
</svg>
